<svg width="24" height="24" viewBox="0 0 24 24" fill="none" xmlns="http://www.w3.org/2000/svg">
  <path d="M6.76 10.24C6.76 10.7 6.8 11.1 6.92 11.46C7.04 11.84 7.22 12.2 7.48 12.54C7.58 12.66 7.62 12.8 7.62 12.94C7.62 13.12 7.52 13.28 7.34 13.42L6.56 14C6.42 14.1 6.28 14.14 6.16 14.14C6.02 14.14 5.88 14.08 5.74 13.96C5.48 13.68 5.26 13.38 5.08 13.06C4.9 12.74 4.72 12.38 4.54 12C3.76 13 2.76 13.5 1.54 13.5C0.62 13.5 -0.12 13.24 -0.68 12.72C-1.24 12.2 -1.52 11.5 -1.52 10.62C-1.52 9.68 -1.18 8.92 -0.5 8.36C0.18 7.8 1.1 7.52 2.26 7.52C2.72 7.52 3.2 7.56 3.7 7.64C4.2 7.72 4.72 7.82 5.26 7.96V7.26C5.26 6.44 5.08 5.86 4.72 5.5C4.36 5.14 3.76 4.96 2.92 4.96C2.44 4.96 1.94 5.02 1.44 5.16C0.94 5.3 0.46 5.46 0 5.66C-0.18 5.74 -0.32 5.8 -0.4 5.82C-0.48 5.84 -0.54 5.86 -0.58 5.86C-0.76 5.86 -0.86 5.72 -0.86 5.44V4.86C-0.86 4.66 -0.84 4.52 -0.78 4.42C-0.72 4.32 -0.6 4.22 -0.42 4.14C0.08 3.92 0.66 3.74 1.32 3.6C1.98 3.46 2.66 3.38 3.38 3.38C4.9 3.38 6.02 3.7 6.74 4.34C7.46 4.98 7.82 5.96 7.82 7.28V10.24H6.76ZM2.24 11.96C2.68 11.96 3.14 11.88 3.62 11.72C4.1 11.56 4.52 11.28 4.88 10.88C5.1 10.62 5.26 10.32 5.36 9.98C5.46 9.64 5.5 9.24 5.5 8.78V8.36C5.08 8.26 4.64 8.18 4.18 8.12C3.72 8.06 3.28 8.04 2.86 8.04C2.16 8.04 1.62 8.2 1.24 8.52C0.86 8.84 0.68 9.3 0.68 9.9C0.68 10.46 0.82 10.88 1.1 11.18C1.38 11.48 1.76 11.62 2.24 11.62V11.96Z" fill="#FF9900"/>
  <path d="M22 13.32C21.78 13.32 21.62 13.28 21.5 13.2C21.38 13.12 21.26 12.96 21.16 12.74L17.98 5.62C17.88 5.38 17.84 5.2 17.84 5.08C17.84 4.88 17.94 4.76 18.14 4.76H19.44C19.68 4.76 19.84 4.8 19.94 4.88C20.04 4.96 20.14 5.1 20.22 5.32L22.5 11.04L24.64 5.32C24.72 5.08 24.82 4.94 24.92 4.88C25.02 4.82 25.2 4.76 25.42 4.76H26.48C26.72 4.76 26.88 4.8 26.98 4.88C27.08 4.96 27.18 5.1 27.26 5.32L29.42 11.08L31.76 5.32C31.84 5.08 31.96 4.94 32.06 4.88C32.16 4.82 32.32 4.76 32.54 4.76H33.78C33.98 4.76 34.1 4.86 34.1 5.06C34.1 5.14 34.08 5.22 34.06 5.32C34.04 5.42 34 5.54 33.94 5.68L30.68 12.76C30.58 12.98 30.46 13.14 30.34 13.22C30.22 13.3 30.06 13.34 29.84 13.34H28.68C28.44 13.34 28.28 13.3 28.18 13.22C28.08 13.14 27.98 13 27.9 12.76L25.76 7.18L23.64 12.76C23.56 13 23.46 13.14 23.36 13.22C23.26 13.3 23.1 13.34 22.86 13.34H22Z" fill="#FF9900"/>
  <path d="M38.5 14C37.32 14 36.26 13.84 35.32 13.52C34.38 13.2 33.7 12.84 33.28 12.44C33.08 12.26 32.94 12.08 32.88 11.92C32.82 11.76 32.78 11.6 32.78 11.46V10.86C32.78 10.58 32.9 10.44 33.14 10.44C33.24 10.44 33.34 10.46 33.46 10.5C33.58 10.54 33.74 10.62 33.94 10.72C34.54 11.04 35.2 11.28 35.92 11.46C36.64 11.64 37.36 11.72 38.08 11.72C39.16 11.72 40 11.54 40.6 11.18C41.2 10.82 41.5 10.28 41.5 9.56C41.5 9.12 41.38 8.74 41.14 8.42C40.9 8.1 40.46 7.82 39.82 7.58L37.52 6.7C36.32 6.26 35.42 5.66 34.82 4.9C34.22 4.14 33.92 3.36 33.92 2.56C33.92 1.88 34.06 1.28 34.34 0.76C34.62 0.24 35 -0.2 35.48 -0.56C35.96 -0.92 36.52 -1.2 37.16 -1.4C37.8 -1.6 38.48 -1.7 39.2 -1.7C39.7 -1.7 40.22 -1.66 40.7 -1.58C41.2 -1.5 41.66 -1.38 42.1 -1.24C42.52 -1.1 42.92 -0.94 43.26 -0.76C43.6 -0.58 43.88 -0.38 44.08 -0.18C44.26 -0.02 44.38 0.14 44.44 0.3C44.5 0.46 44.54 0.62 44.54 0.8V1.36C44.54 1.64 44.42 1.78 44.18 1.78C44.06 1.78 43.9 1.74 43.7 1.64C42.82 1.18 41.84 0.94 40.76 0.94C39.76 0.94 38.98 1.1 38.42 1.42C37.86 1.74 37.58 2.26 37.58 2.98C37.58 3.42 37.72 3.8 38 4.12C38.28 4.44 38.76 4.74 39.44 5.02L41.72 5.9C42.92 6.34 43.8 6.94 44.36 7.7C44.92 8.46 45.2 9.26 45.2 10.1C45.2 10.8 45.06 11.42 44.78 11.98C44.5 12.54 44.1 13.02 43.58 13.42C43.06 13.82 42.44 14.12 41.72 14.34C40.98 14.56 40.18 14.66 39.32 14.66L38.5 14Z" fill="#FF9900"/>
</svg>

