<svg width="24" height="24" viewBox="0 0 24 24" fill="none" xmlns="http://www.w3.org/2000/svg">
  <path d="M22.2819 9.8211C22.9527 10.9033 23.2791 12.1782 23.2113 13.4629C23.1435 14.7477 22.6847 15.9809 21.8981 16.9861C21.1115 17.9913 20.0365 18.7185 18.8267 19.0691C17.6169 19.4197 16.3304 19.377 15.1453 18.9469C14.8258 20.0716 14.1855 21.0774 13.3019 21.8388C12.4183 22.6003 11.3306 23.0845 10.1773 23.2319C9.02398 23.3794 7.85398 23.1841 6.81631 22.6701C5.77863 22.1561 4.91954 21.3456 4.34993 20.3389C3.44837 20.5059 2.52344 20.4541 1.64568 20.1879C0.767916 19.9217 -0.0332031 19.4492 -0.774414 18.8094C-1.51563 18.1696 -2.07471 17.3802 -2.40576 16.5029C-2.73682 15.6255 -2.83105 14.6848 -2.68066 13.7617" stroke="#10A37F" stroke-width="2"/>
  <circle cx="12" cy="12" r="6" fill="#10A37F"/>
</svg>

