<svg width="1212" height="145" viewBox="0 0 1212 145" fill="none" xmlns="http://www.w3.org/2000/svg">
<path fill-rule="evenodd" clip-rule="evenodd" d="M426.74 0.275935C424.986 1.02171 424.168 3.04881 424.913 4.80358L483.603 142.897C484.349 144.652 486.376 145.47 488.131 144.724C489.886 143.978 490.704 141.951 489.958 140.196L431.268 2.10288C430.522 0.348108 428.495 -0.469843 426.74 0.275935Z" fill="black"/>
<path d="M680.869 1.29635C682.06 -0.19234 684.233 -0.433752 685.722 0.757289C687.21 1.94841 687.452 4.12108 686.261 5.60983L632.748 72.4995L686.261 139.39C687.452 140.879 687.21 143.051 685.722 144.243C684.233 145.434 682.06 145.192 680.869 143.704L625.631 74.6567C625.625 74.6493 625.619 74.6417 625.613 74.6342C625.586 74.5998 625.56 74.565 625.534 74.5297C625.524 74.5165 625.515 74.503 625.506 74.4897C625.483 74.4569 625.46 74.4236 625.438 74.3901C625.429 74.3761 625.42 74.3622 625.411 74.3481C625.388 74.312 625.366 74.2755 625.345 74.2387C625.335 74.2228 625.326 74.2069 625.317 74.1909C625.302 74.1634 625.287 74.1357 625.272 74.1079C625.23 74.0269 625.19 73.945 625.154 73.8618C625.147 73.8453 625.141 73.8286 625.134 73.812C625.119 73.777 625.106 73.7418 625.093 73.7065C625.087 73.6906 625.081 73.6747 625.075 73.6587C625.064 73.6262 625.052 73.5937 625.042 73.561C625.035 73.5385 625.027 73.5162 625.02 73.4936C624.978 73.351 624.945 73.2065 624.921 73.061C624.918 73.0454 624.915 73.0298 624.913 73.0141C624.908 72.979 624.903 72.9439 624.898 72.9087C624.896 72.8875 624.894 72.8663 624.892 72.8452C624.883 72.7603 624.878 72.6753 624.876 72.5903C624.876 72.577 624.875 72.5636 624.875 72.5503V72.4497C624.875 72.436 624.876 72.4223 624.876 72.4087C624.878 72.3236 624.883 72.2386 624.892 72.1538C624.894 72.1326 624.896 72.1114 624.898 72.0903C624.903 72.0551 624.908 72.02 624.913 71.9848C624.915 71.9692 624.918 71.9536 624.921 71.938C624.945 71.7897 624.979 71.6427 625.023 71.4975C625.029 71.4806 625.034 71.4636 625.039 71.4467C625.051 71.4101 625.063 71.3737 625.076 71.3374C625.081 71.3223 625.087 71.3074 625.093 71.2924C625.106 71.2572 625.119 71.2219 625.134 71.187C625.141 71.1704 625.147 71.1537 625.154 71.1372C625.19 71.054 625.23 70.972 625.272 70.8911C625.287 70.8635 625.302 70.8363 625.317 70.809C625.326 70.7934 625.335 70.7777 625.344 70.7622C625.394 70.675 625.449 70.5894 625.508 70.5063C625.516 70.4939 625.525 70.4815 625.534 70.4692C625.56 70.434 625.586 70.3991 625.613 70.3647C625.619 70.3574 625.625 70.3505 625.631 70.3432L680.869 1.29635Z" fill="black"/>
<path d="M701.583 1.29638C702.774 -0.192378 704.947 -0.433743 706.436 0.757319C707.924 1.94845 708.166 4.12107 706.975 5.60986L653.462 72.4995L706.975 139.39C708.166 140.879 707.924 143.052 706.436 144.243C704.947 145.434 702.774 145.192 701.583 143.704L646.393 74.7163C646.306 74.6129 646.227 74.5042 646.154 74.3931C646.14 74.3717 646.127 74.3502 646.113 74.3286C646.099 74.3049 646.084 74.2813 646.069 74.2573C646.054 74.2318 646.04 74.206 646.025 74.1802C646.012 74.1562 645.999 74.1321 645.986 74.1079C645.972 74.0811 645.959 74.0539 645.945 74.0268C645.934 74.0038 645.923 73.9807 645.912 73.9575C645.9 73.9321 645.888 73.9069 645.877 73.8813C645.866 73.8551 645.855 73.8287 645.844 73.8022C645.831 73.7705 645.819 73.7385 645.807 73.7065C645.801 73.6906 645.795 73.6747 645.789 73.6587C645.778 73.6262 645.766 73.5937 645.756 73.561C645.749 73.5386 645.741 73.5162 645.734 73.4936C645.692 73.3511 645.659 73.2066 645.635 73.061C645.633 73.048 645.63 73.035 645.628 73.022C645.606 72.8787 645.594 72.7345 645.59 72.5903C645.59 72.577 645.589 72.5636 645.589 72.5503V72.4497C645.589 72.436 645.59 72.4224 645.59 72.4087C645.594 72.2645 645.606 72.1203 645.628 71.977C645.63 71.964 645.633 71.951 645.635 71.938C645.659 71.7897 645.693 71.6427 645.737 71.4976C645.742 71.4806 645.748 71.4636 645.753 71.4468C645.765 71.4102 645.777 71.3737 645.79 71.3374C645.795 71.3224 645.801 71.3074 645.807 71.2925C645.819 71.2605 645.831 71.2285 645.844 71.1968C645.855 71.1703 645.866 71.1439 645.877 71.1177C645.888 71.0921 645.9 71.0669 645.912 71.0415C645.923 71.0183 645.934 70.9952 645.945 70.9722C645.959 70.9451 645.972 70.9179 645.986 70.8911C645.999 70.8669 646.012 70.8428 646.025 70.8188C646.039 70.7943 646.053 70.7699 646.067 70.7456C646.086 70.7144 646.105 70.6835 646.124 70.6528C646.132 70.6411 646.139 70.6293 646.147 70.6177C646.222 70.5023 646.303 70.3898 646.393 70.2827L701.583 1.29638Z" fill="black"/>
<path fill-rule="evenodd" clip-rule="evenodd" d="M827.212 0.275935C825.457 1.02171 824.639 3.04881 825.385 4.80358L884.075 142.897C884.82 144.652 886.847 145.47 888.602 144.724C890.357 143.978 891.175 141.951 890.429 140.196L831.739 2.10288C830.994 0.348108 828.966 -0.469843 827.212 0.275935Z" fill="black"/>
<path fill-rule="evenodd" clip-rule="evenodd" d="M847.926 0.275935C846.171 1.02171 845.353 3.04881 846.099 4.80358L904.789 142.897C905.534 144.652 907.561 145.47 909.316 144.724C911.071 143.978 911.889 141.951 911.143 140.196L852.453 2.10288C851.708 0.348108 849.68 -0.469843 847.926 0.275935Z" fill="black"/>
<path fill-rule="evenodd" clip-rule="evenodd" d="M868.64 0.275935C866.885 1.02171 866.067 3.04881 866.813 4.80358L925.503 142.897C926.248 144.652 928.275 145.47 930.03 144.724C931.785 143.978 932.603 141.951 931.857 140.196L873.167 2.10288C872.422 0.348108 870.394 -0.469843 868.64 0.275935Z" fill="black"/>
<path fill-rule="evenodd" clip-rule="evenodd" d="M1166.89 0.000680783C1164.98 0.000680783 1163.44 1.54635 1163.44 3.45302V141.547C1163.44 143.453 1164.98 144.999 1166.89 144.999C1168.8 144.999 1170.34 143.453 1170.34 141.547V3.45302C1170.34 1.54635 1168.8 0.000680783 1166.89 0.000680783ZM977.013 0.000680783C975.106 0.000680783 973.56 1.54635 973.56 3.45302V141.547C973.56 143.453 975.106 144.999 977.013 144.999C978.919 144.999 980.465 143.453 980.465 141.547V3.45302C980.465 1.54635 978.919 0.000680783 977.013 0.000680783ZM559.28 0.000680783C557.373 0.000680783 555.827 1.54635 555.827 3.45302V141.547C555.827 143.453 557.373 144.999 559.28 144.999C561.186 144.999 562.732 143.453 562.732 141.547V3.45302C562.732 1.54635 561.186 0.000680783 559.28 0.000680783ZM234.76 0.000680783C232.853 0.000680783 231.308 1.54635 231.308 3.45302V141.547C231.308 143.453 232.853 144.999 234.76 144.999C236.667 144.999 238.212 143.453 238.212 141.547V3.45302C238.212 1.54635 236.667 0.000680783 234.76 0.000680783Z" fill="black"/>
<path fill-rule="evenodd" clip-rule="evenodd" d="M63.4933 0.275935C65.2481 1.02171 66.066 3.04881 65.3203 4.80358L6.63052 142.897C5.88474 144.652 3.85765 145.47 2.10288 144.724C0.348108 143.978 -0.469843 141.951 0.275935 140.196L58.9657 2.10288C59.7115 0.348108 61.7386 -0.469843 63.4933 0.275935Z" fill="black"/>
<path fill-rule="evenodd" clip-rule="evenodd" d="M81.5066 0.275935C79.7518 1.02171 78.9339 3.04881 79.6796 4.80358L138.369 142.897C139.115 144.652 141.142 145.47 142.897 144.724C144.652 143.978 145.47 141.951 144.724 140.196L86.0342 2.10288C85.2885 0.348108 83.2614 -0.469843 81.5066 0.275935Z" fill="black"/>
<path fill-rule="evenodd" clip-rule="evenodd" d="M406.026 0.275935C404.272 1.02171 403.454 3.04881 404.199 4.80358L462.889 142.897C463.635 144.652 465.662 145.47 467.417 144.724C469.172 143.978 469.99 141.951 469.244 140.196L410.554 2.10288C409.808 0.348108 407.781 -0.469843 406.026 0.275935Z" fill="black"/>
<path d="M660.155 1.29638C661.346 -0.192379 663.519 -0.433743 665.008 0.75732C666.496 1.94845 666.738 4.12107 665.547 5.60986L612.034 72.4995L665.547 139.39C666.738 140.879 666.496 143.052 665.008 144.243C663.519 145.434 661.346 145.192 660.155 143.704L604.965 74.7163C604.878 74.6129 604.799 74.5042 604.726 74.3931C604.712 74.3717 604.699 74.3502 604.685 74.3286C604.67 74.3049 604.656 74.2813 604.641 74.2573C604.626 74.2318 604.612 74.206 604.597 74.1802C604.584 74.1562 604.571 74.1321 604.558 74.1079C604.544 74.0811 604.531 74.0539 604.517 74.0268C604.506 74.0038 604.495 73.9807 604.484 73.9575C604.472 73.9321 604.46 73.9069 604.449 73.8813C604.438 73.8551 604.427 73.8287 604.416 73.8022C604.403 73.7705 604.391 73.7385 604.379 73.7065C604.373 73.6906 604.367 73.6747 604.361 73.6587C604.35 73.6262 604.338 73.5937 604.328 73.561C604.321 73.5386 604.313 73.5162 604.306 73.4936C604.264 73.3511 604.231 73.2066 604.207 73.061C604.205 73.048 604.202 73.035 604.2 73.022C604.178 72.8787 604.166 72.7345 604.162 72.5903C604.161 72.577 604.161 72.5636 604.161 72.5503V72.4497C604.161 72.436 604.161 72.4224 604.162 72.4087C604.166 72.2645 604.178 72.1203 604.2 71.977C604.202 71.964 604.205 71.951 604.207 71.938C604.231 71.7897 604.265 71.6427 604.309 71.4976C604.314 71.4806 604.32 71.4636 604.325 71.4468C604.337 71.4102 604.349 71.3737 604.362 71.3374C604.367 71.3224 604.373 71.3074 604.379 71.2925C604.391 71.2605 604.403 71.2285 604.416 71.1968C604.427 71.1703 604.438 71.1439 604.449 71.1177C604.46 71.0921 604.472 71.0669 604.484 71.0415C604.495 71.0183 604.506 70.9952 604.517 70.9722C604.531 70.9451 604.544 70.9179 604.558 70.8911C604.571 70.8669 604.584 70.8428 604.597 70.8188C604.611 70.7943 604.625 70.7699 604.639 70.7456C604.658 70.7144 604.677 70.6835 604.696 70.6528C604.703 70.6411 604.711 70.6293 604.719 70.6177C604.794 70.5023 604.875 70.3898 604.965 70.2827L660.155 1.29638Z" fill="black"/>
<path fill-rule="evenodd" clip-rule="evenodd" d="M391.465 0.275935C393.22 1.02171 394.038 3.04881 393.292 4.80358L334.603 142.897C333.857 144.652 331.83 145.47 330.075 144.724C328.32 143.978 327.502 141.951 328.248 140.196L386.938 2.10288C387.684 0.348108 389.711 -0.469843 391.465 0.275935Z" fill="black"/>
<path fill-rule="evenodd" clip-rule="evenodd" d="M812.651 0.275935C814.406 1.02171 815.224 3.04881 814.478 4.80358L755.788 142.897C755.042 144.652 753.015 145.47 751.26 144.724C749.506 143.978 748.688 141.951 749.433 140.196L808.123 2.10288C808.869 0.348108 810.896 -0.469843 812.651 0.275935Z" fill="black"/>
<path fill-rule="evenodd" clip-rule="evenodd" d="M84.2074 0.275935C85.9621 1.02171 86.7801 3.04881 86.0343 4.80358L27.3446 142.897C26.5988 144.652 24.5717 145.47 22.8169 144.724C21.0621 143.978 20.2442 141.951 20.99 140.196L79.6797 2.10288C80.4255 0.348108 82.4526 -0.469843 84.2074 0.275935Z" fill="black"/>
<path fill-rule="evenodd" clip-rule="evenodd" d="M102.221 0.275935C100.466 1.02171 99.6479 3.04881 100.394 4.80358L159.083 142.897C159.829 144.652 161.856 145.47 163.611 144.724C165.366 143.978 166.184 141.951 165.438 140.196L106.748 2.10288C106.002 0.348108 103.975 -0.469843 102.221 0.275935Z" fill="black"/>
<path fill-rule="evenodd" clip-rule="evenodd" d="M1187.61 0.000680783C1185.7 0.000680783 1184.15 1.54635 1184.15 3.45302V141.547C1184.15 143.453 1185.7 144.999 1187.61 144.999C1189.51 144.999 1191.06 143.453 1191.06 141.547V3.45302C1191.06 1.54635 1189.51 0.000680783 1187.61 0.000680783ZM997.727 0.000680783C995.82 0.000680783 994.274 1.54635 994.274 3.45302V141.547C994.274 143.453 995.82 144.999 997.727 144.999C999.633 144.999 1001.18 143.453 1001.18 141.547V3.45302C1001.18 1.54635 999.633 0.000680783 997.727 0.000680783ZM579.994 0.000680783C578.087 0.000680783 576.541 1.54635 576.541 3.45302V141.547C576.541 143.453 578.087 144.999 579.994 144.999C581.9 144.999 583.446 143.453 583.446 141.547V3.45302C583.446 1.54635 581.9 0.000680783 579.994 0.000680783ZM255.474 0.000680783C253.567 0.000680783 252.022 1.54635 252.022 3.45302V141.547C252.022 143.453 253.567 144.999 255.474 144.999C257.381 144.999 258.926 143.453 258.926 141.547V3.45302C258.926 1.54635 257.381 0.000680783 255.474 0.000680783Z" fill="black"/>
<path fill-rule="evenodd" clip-rule="evenodd" d="M412.18 0.275935C413.934 1.02171 414.752 3.04881 414.006 4.80358L355.317 142.897C354.571 144.652 352.544 145.47 350.789 144.724C349.034 143.978 348.216 141.951 348.962 140.196L407.652 2.10288C408.398 0.348108 410.425 -0.469843 412.18 0.275935Z" fill="black"/>
<path fill-rule="evenodd" clip-rule="evenodd" d="M833.365 0.275935C835.12 1.02171 835.938 3.04881 835.192 4.80358L776.502 142.897C775.756 144.652 773.729 145.47 771.974 144.724C770.22 143.978 769.402 141.951 770.147 140.196L828.837 2.10288C829.583 0.348108 831.61 -0.469843 833.365 0.275935Z" fill="black"/>
<path fill-rule="evenodd" clip-rule="evenodd" d="M104.921 0.275935C106.676 1.02171 107.494 3.04881 106.748 4.80358L48.0586 142.897C47.3128 144.652 45.2857 145.47 43.5309 144.724C41.7762 143.978 40.9582 141.951 41.704 140.196L100.394 2.10288C101.14 0.348108 103.167 -0.469843 104.921 0.275935Z" fill="black"/>
<path fill-rule="evenodd" clip-rule="evenodd" d="M122.935 0.275935C121.18 1.02171 120.362 3.04881 121.108 4.80358L179.797 142.897C180.543 144.652 182.57 145.47 184.325 144.724C186.08 143.978 186.898 141.951 186.152 140.196L127.462 2.10288C126.717 0.348108 124.689 -0.469843 122.935 0.275935Z" fill="black"/>
<path fill-rule="evenodd" clip-rule="evenodd" d="M447.454 0.275935C445.7 1.02171 444.882 3.04881 445.628 4.80358L504.317 142.897C505.063 144.652 507.09 145.47 508.845 144.724C510.6 143.978 511.418 141.951 510.672 140.196L451.982 2.10288C451.236 0.348108 449.209 -0.469843 447.454 0.275935Z" fill="black"/>
<path fill-rule="evenodd" clip-rule="evenodd" d="M1208.32 0.000680783C1206.41 0.000680783 1204.87 1.54635 1204.87 3.45302V141.547C1204.87 143.453 1206.41 144.999 1208.32 144.999C1210.23 144.999 1211.77 143.453 1211.77 141.547V3.45302C1211.77 1.54635 1210.23 0.000680783 1208.32 0.000680783ZM1018.44 0.000680783C1016.53 0.000680783 1014.99 1.54635 1014.99 3.45302V141.547C1014.99 143.453 1016.53 144.999 1018.44 144.999C1020.35 144.999 1021.89 143.453 1021.89 141.547V3.45302C1021.89 1.54635 1020.35 0.000680783 1018.44 0.000680783ZM600.708 0.000680783C598.801 0.000680783 597.255 1.54635 597.255 3.45302V141.547C597.255 143.453 598.801 144.999 600.708 144.999C602.614 144.999 604.16 143.453 604.16 141.547V3.45302C604.16 1.54635 602.614 0.000680783 600.708 0.000680783ZM276.188 0.000680783C274.281 0.000680783 272.736 1.54635 272.736 3.45302V141.547C272.736 143.453 274.281 144.999 276.188 144.999C278.095 144.999 279.64 143.453 279.64 141.547V3.45302C279.64 1.54635 278.095 0.000680783 276.188 0.000680783Z" fill="black"/>
<path fill-rule="evenodd" clip-rule="evenodd" d="M432.894 0.275935C434.648 1.02171 435.466 3.04881 434.72 4.80358L376.031 142.897C375.285 144.652 373.258 145.47 371.503 144.724C369.748 143.978 368.93 141.951 369.676 140.196L428.366 2.10288C429.112 0.348108 431.139 -0.469843 432.894 0.275935Z" fill="black"/>
<path fill-rule="evenodd" clip-rule="evenodd" d="M854.079 0.275935C855.834 1.02171 856.652 3.04881 855.906 4.80358L797.216 142.897C796.47 144.652 794.443 145.47 792.688 144.724C790.934 143.978 790.116 141.951 790.861 140.196L849.551 2.10288C850.297 0.348108 852.324 -0.469843 854.079 0.275935Z" fill="black"/>
<path d="M1077.89 1.29636C1079.08 -0.192348 1081.25 -0.43375 1082.74 0.757296C1084.23 1.94842 1084.47 4.12108 1083.28 5.60984L1029.77 72.4995L1083.28 139.39C1084.47 140.879 1084.23 143.052 1082.74 144.243C1081.25 145.434 1079.08 145.192 1077.89 143.704L1022.7 74.7163C1022.65 74.6552 1022.6 74.5917 1022.55 74.5278C1022.54 74.5151 1022.53 74.5025 1022.52 74.4897C1022.5 74.4569 1022.48 74.4236 1022.46 74.3901C1022.45 74.3761 1022.44 74.3622 1022.43 74.3481C1022.41 74.312 1022.39 74.2755 1022.36 74.2387C1022.35 74.2229 1022.35 74.2069 1022.34 74.1909C1022.32 74.1634 1022.31 74.1357 1022.29 74.1079C1022.28 74.081 1022.26 74.0539 1022.25 74.0268C1022.24 74.0038 1022.23 73.9807 1022.22 73.9575C1022.21 73.9321 1022.19 73.9069 1022.18 73.8813C1022.17 73.8551 1022.16 73.8287 1022.15 73.8022C1022.14 73.7705 1022.12 73.7385 1022.11 73.7065C1022.11 73.6906 1022.1 73.6747 1022.09 73.6587C1022.08 73.6262 1022.07 73.5937 1022.06 73.561C1022.05 73.5386 1022.05 73.5162 1022.04 73.4936C1022 73.351 1021.96 73.2066 1021.94 73.061C1021.94 73.0454 1021.93 73.0298 1021.93 73.0141C1021.93 72.979 1021.92 72.9439 1021.92 72.9087C1021.91 72.8875 1021.91 72.8664 1021.91 72.8452C1021.9 72.7604 1021.9 72.6753 1021.89 72.5903C1021.89 72.577 1021.89 72.5636 1021.89 72.5503V72.4497C1021.89 72.436 1021.89 72.4223 1021.89 72.4087C1021.9 72.3236 1021.9 72.2386 1021.91 72.1538C1021.91 72.1326 1021.91 72.1114 1021.92 72.0903C1021.92 72.0551 1021.93 72.02 1021.93 71.9848C1021.93 71.9692 1021.94 71.9536 1021.94 71.938C1021.96 71.7897 1022 71.6427 1022.04 71.4975C1022.05 71.4806 1022.05 71.4636 1022.06 71.4467C1022.07 71.4101 1022.08 71.3737 1022.1 71.3374C1022.1 71.3223 1022.11 71.3074 1022.11 71.2924C1022.12 71.2604 1022.14 71.2285 1022.15 71.1967C1022.16 71.1703 1022.17 71.1439 1022.18 71.1176C1022.19 71.0921 1022.21 71.0669 1022.22 71.0415C1022.23 71.0182 1022.24 70.9951 1022.25 70.9721C1022.26 70.945 1022.28 70.9179 1022.29 70.8911C1022.31 70.8635 1022.32 70.8363 1022.34 70.8091C1022.35 70.7934 1022.35 70.7777 1022.36 70.7622C1022.41 70.675 1022.47 70.5894 1022.53 70.5063C1022.54 70.4945 1022.54 70.4829 1022.55 70.4712C1022.6 70.4073 1022.65 70.3438 1022.7 70.2827L1077.89 1.29636Z" fill="black"/>
<path d="M1098.6 1.29637C1099.79 -0.192366 1101.97 -0.433746 1103.45 0.75731C1104.94 1.94844 1105.18 4.12108 1103.99 5.60985L1050.48 72.4995L1103.99 139.39C1105.18 140.879 1104.94 143.052 1103.45 144.243C1101.97 145.434 1099.79 145.192 1098.6 143.704L1043.41 74.7163C1043.32 74.6128 1043.25 74.5042 1043.17 74.3931C1043.16 74.3717 1043.15 74.3501 1043.13 74.3286C1043.12 74.3049 1043.1 74.2813 1043.09 74.2573C1043.07 74.2318 1043.06 74.2059 1043.04 74.1802C1043.03 74.1562 1043.02 74.1321 1043.01 74.1079C1042.99 74.0811 1042.98 74.0539 1042.96 74.0268C1042.95 74.0038 1042.94 73.9807 1042.93 73.9575C1042.92 73.9321 1042.91 73.9069 1042.9 73.8813C1042.88 73.8551 1042.87 73.8287 1042.86 73.8022C1042.85 73.7705 1042.84 73.7385 1042.83 73.7065C1042.82 73.6906 1042.81 73.6747 1042.81 73.6587C1042.8 73.6262 1042.79 73.5937 1042.77 73.561C1042.77 73.5386 1042.76 73.5162 1042.75 73.4936C1042.71 73.3511 1042.68 73.2066 1042.65 73.061C1042.65 73.048 1042.65 73.035 1042.65 73.022C1042.63 72.8787 1042.61 72.7345 1042.61 72.5903C1042.61 72.577 1042.61 72.5636 1042.61 72.5503V72.4497C1042.61 72.436 1042.61 72.4223 1042.61 72.4087C1042.61 72.2645 1042.63 72.1203 1042.65 71.977C1042.65 71.964 1042.65 71.951 1042.65 71.938C1042.68 71.7897 1042.71 71.6427 1042.76 71.4975C1042.76 71.4806 1042.77 71.4636 1042.77 71.4468C1042.78 71.4101 1042.8 71.3737 1042.81 71.3374C1042.81 71.3224 1042.82 71.3074 1042.83 71.2925C1042.84 71.2605 1042.85 71.2285 1042.86 71.1968C1042.87 71.1703 1042.88 71.1439 1042.9 71.1177C1042.91 71.0921 1042.92 71.0669 1042.93 71.0415C1042.94 71.0183 1042.95 70.9952 1042.96 70.9722C1042.98 70.9451 1042.99 70.9179 1043.01 70.8911C1043.02 70.8669 1043.03 70.8428 1043.04 70.8188C1043.06 70.7943 1043.07 70.7699 1043.09 70.7456C1043.1 70.7144 1043.12 70.6835 1043.14 70.6528C1043.15 70.6411 1043.16 70.6293 1043.17 70.6177C1043.24 70.5023 1043.32 70.3898 1043.41 70.2827L1098.6 1.29637Z" fill="black"/>
<path d="M1119.32 1.29635C1120.51 -0.192342 1122.68 -0.433752 1124.17 0.757291C1125.66 1.94841 1125.9 4.12108 1124.71 5.60983L1071.19 72.4995L1124.71 139.39C1125.9 140.879 1125.66 143.051 1124.17 144.243C1122.68 145.434 1120.51 145.192 1119.32 143.704L1064.08 74.6567C1064.07 74.6493 1064.07 74.6417 1064.06 74.6342C1064.03 74.5998 1064.01 74.565 1063.98 74.5297C1063.97 74.5165 1063.96 74.503 1063.95 74.4897C1063.93 74.4569 1063.91 74.4236 1063.89 74.3901C1063.88 74.3761 1063.87 74.3622 1063.86 74.3481C1063.84 74.312 1063.81 74.2755 1063.79 74.2387C1063.78 74.2228 1063.77 74.2069 1063.76 74.1909C1063.75 74.1634 1063.73 74.1357 1063.72 74.1079C1063.68 74.0269 1063.64 73.945 1063.6 73.8618C1063.59 73.8453 1063.59 73.8286 1063.58 73.812C1063.57 73.777 1063.55 73.7418 1063.54 73.7065C1063.53 73.6906 1063.53 73.6747 1063.52 73.6587C1063.51 73.6262 1063.5 73.5937 1063.49 73.561C1063.48 73.5385 1063.47 73.5162 1063.47 73.4936C1063.42 73.351 1063.39 73.2065 1063.37 73.061C1063.37 73.0454 1063.36 73.0298 1063.36 73.0141C1063.35 72.979 1063.35 72.9439 1063.35 72.9087C1063.34 72.8875 1063.34 72.8663 1063.34 72.8452C1063.33 72.7603 1063.33 72.6753 1063.32 72.5903C1063.32 72.577 1063.32 72.5636 1063.32 72.5503V72.4497C1063.32 72.436 1063.32 72.4223 1063.32 72.4087C1063.33 72.3236 1063.33 72.2386 1063.34 72.1538C1063.34 72.1326 1063.34 72.1114 1063.35 72.0903C1063.35 72.0551 1063.35 72.02 1063.36 71.9848C1063.36 71.9692 1063.37 71.9536 1063.37 71.938C1063.39 71.7897 1063.43 71.6427 1063.47 71.4975C1063.48 71.4806 1063.48 71.4636 1063.49 71.4467C1063.5 71.4101 1063.51 71.3737 1063.52 71.3374C1063.53 71.3223 1063.53 71.3074 1063.54 71.2924C1063.55 71.2572 1063.57 71.2219 1063.58 71.187C1063.59 71.1704 1063.59 71.1537 1063.6 71.1372C1063.64 71.054 1063.68 70.972 1063.72 70.8911C1063.73 70.8635 1063.75 70.8363 1063.76 70.809C1063.77 70.7934 1063.78 70.7777 1063.79 70.7622C1063.84 70.675 1063.9 70.5894 1063.95 70.5063C1063.96 70.4939 1063.97 70.4815 1063.98 70.4692C1064.01 70.434 1064.03 70.3991 1064.06 70.3647C1064.07 70.3574 1064.07 70.3505 1064.08 70.3432L1119.32 1.29635Z" fill="black"/>
</svg>

