<svg width="163" height="210" viewBox="0 0 163 210" fill="none" xmlns="http://www.w3.org/2000/svg">
<path fill-rule="evenodd" clip-rule="evenodd" d="M162.906 7.18631C162.906 3.21742 159.688 0 155.719 0C151.751 0 148.533 3.21742 148.533 7.18631L148.533 202.015C148.533 205.984 151.751 209.202 155.719 209.202C159.688 209.202 162.906 205.984 162.906 202.015V7.18631ZM2.04411 179.658C3.40684 181.021 5.24654 181.702 7.56319 181.702C10.0161 181.702 11.924 181.021 13.2867 179.658C14.6494 178.159 15.3308 176.115 15.3308 173.526V132.235H61.5276C80.0608 132.235 94.2333 128.214 104.045 120.174C113.993 111.998 118.967 100.415 118.967 85.4245C118.967 52.8551 99.548 36.5704 60.71 36.5704H25.9602C17.7837 36.5704 11.3789 38.7508 6.74555 43.1115C2.24852 47.4723 0 53.4683 0 61.0997V173.526C0 176.115 0.681369 178.159 2.04411 179.658ZM92.1892 111.589C84.9667 116.767 74.7462 119.357 61.5276 119.357H15.3308V61.0997C15.3308 57.5565 16.2847 54.6948 18.1925 52.5144C20.2367 50.334 22.894 49.2438 26.1646 49.2438H61.732C75.2231 49.2438 85.5118 52.1056 92.598 57.8291C99.6843 63.4163 103.227 72.6148 103.227 85.4245C103.227 97.6892 99.548 106.411 92.1892 111.589Z" fill="black"/>
</svg>

