<svg width="742" height="210" viewBox="0 0 742 210" fill="none" xmlns="http://www.w3.org/2000/svg">
<path d="M734.816 0C738.785 1.56361e-05 742.003 3.21764 742.003 7.18652V202.016C742.003 205.984 738.785 209.201 734.816 209.201C730.848 209.201 727.63 205.984 727.63 202.016V7.18652C727.63 3.21763 730.848 -1.73486e-07 734.816 0Z" fill="black"/>
<path fill-rule="evenodd" clip-rule="evenodd" d="M60.71 36.5703C99.548 36.5703 118.967 52.8554 118.967 85.4248C118.967 100.415 113.993 111.998 104.045 120.175C94.2332 128.215 80.0604 132.234 61.5273 132.234H15.3311V173.525C15.3311 176.115 14.6498 178.159 13.2871 179.658C11.9244 181.021 10.0163 181.702 7.56348 181.702C5.24688 181.702 3.40667 181.021 2.04395 179.658C0.681208 178.159 0 176.115 0 173.525V61.0996C9.84257e-06 53.4684 2.24818 47.4721 6.74512 43.1113C11.3784 38.7506 17.7836 36.5703 25.96 36.5703H60.71ZM26.165 49.2441C22.8945 49.2441 20.2365 50.3343 18.1924 52.5146C16.2847 54.695 15.3311 57.5566 15.3311 61.0996V119.356H61.5273C74.7459 119.356 84.9669 116.767 92.1895 111.589C99.548 106.41 103.227 97.6891 103.228 85.4248C103.228 72.6151 99.6839 63.4163 92.5977 57.8291C85.5115 52.1058 75.2232 49.2442 61.7324 49.2441H26.165Z" fill="black"/>
<path d="M257.925 34.5264C260.377 34.5264 262.217 35.2757 263.443 36.7744C264.806 38.1372 265.488 40.1139 265.488 42.7031V121.81C265.488 133.802 263.035 144.363 258.129 153.493C253.223 162.487 246.137 169.437 236.87 174.343C227.74 179.249 216.974 181.702 204.573 181.702C192.445 181.702 181.884 179.317 172.89 174.548C164.032 169.778 157.218 162.896 152.448 153.902C147.679 144.908 145.294 134.21 145.294 121.81V42.7031C145.294 40.1139 145.976 38.1372 147.339 36.7744C148.702 35.2757 150.541 34.5264 152.857 34.5264C155.31 34.5264 157.218 35.2755 158.581 36.7744C159.944 38.1372 160.625 40.1139 160.625 42.7031V122.423C160.625 137.14 164.509 148.519 172.276 156.56C180.044 164.6 190.946 168.619 204.982 168.619C219.155 168.619 230.193 164.6 238.097 156.56C246.137 148.383 250.157 137.004 250.157 122.423V42.7031C250.157 40.1139 250.838 38.1372 252.201 36.7744C253.7 35.2755 255.608 34.5264 257.925 34.5264Z" fill="black"/>
<path fill-rule="evenodd" clip-rule="evenodd" d="M625.393 34.5264C639.156 34.5264 651.558 37.5923 662.596 43.7246C673.634 49.7206 682.287 58.306 688.556 69.4805C694.961 80.5186 698.163 93.3967 698.163 108.114C698.163 122.695 694.961 135.574 688.556 146.748C682.287 157.922 673.634 166.576 662.596 172.708C651.558 178.704 639.156 181.702 625.393 181.702C611.629 181.702 599.228 178.704 588.19 172.708C577.152 166.576 568.43 157.922 562.025 146.748C555.757 135.574 552.623 122.695 552.623 108.114C552.623 93.3967 555.757 80.5186 562.025 69.4805C568.43 58.306 577.152 49.7206 588.19 43.7246C599.228 37.5924 611.629 34.5264 625.393 34.5264ZM624.984 47.6084C614.083 47.6084 604.27 49.9931 595.549 54.7627C586.964 59.5322 580.218 66.4822 575.312 75.6123C570.407 84.7426 567.953 95.5771 567.953 108.114C567.953 120.788 570.407 131.689 575.312 140.819C580.355 149.813 587.168 156.695 595.753 161.465C604.474 166.234 614.354 168.619 625.393 168.619C636.431 168.619 646.243 166.234 654.828 161.465C663.549 156.695 670.363 149.813 675.269 140.819C680.311 131.689 682.832 120.788 682.832 108.114C682.832 95.3045 680.243 84.3344 675.064 75.2041C670.022 66.0738 663.073 59.1919 654.215 54.5586C645.493 49.9253 635.75 47.6085 624.984 47.6084Z" fill="black"/>
<path fill-rule="evenodd" clip-rule="evenodd" d="M371.64 36.5703C385.403 36.5704 396.1 39.9775 403.731 46.791C411.363 53.6047 415.179 63.2124 415.179 75.6133C415.179 82.6991 413.339 88.8994 409.66 94.2139C405.981 99.3923 400.938 103.345 394.533 106.07V106.479C401.756 109.068 407.411 113.156 411.499 118.743C415.587 124.194 417.632 130.667 417.632 138.162C417.632 150.972 413.748 161.125 405.98 168.62C398.213 175.979 387.583 179.658 374.092 179.658H323.603C315.29 179.658 308.817 177.478 304.184 173.117C299.55 168.62 297.233 162.487 297.233 154.72V61.0996C297.233 53.4683 299.482 47.4721 303.979 43.1113C308.613 38.7507 315.018 36.5703 323.194 36.5703H371.64ZM312.564 155.129C312.565 158.536 313.587 161.329 315.631 163.51C317.675 165.69 320.264 166.78 323.398 166.78H373.274C382.677 166.78 389.831 164.395 394.737 159.626C399.643 154.72 402.097 147.634 402.097 138.367C402.097 130.327 399.507 124.059 394.329 119.562C389.151 115.065 382.064 112.815 373.07 112.815H312.564V155.129ZM323.398 49.2441C320.264 49.2441 317.675 50.4021 315.631 52.7188C313.587 54.8991 312.564 57.6928 312.564 61.0996V100.347H373.274C381.315 100.347 387.72 98.0976 392.489 93.6006C397.259 89.1037 399.643 83.108 399.644 75.6133C399.644 67.028 397.259 60.4863 392.489 55.9893C387.72 51.4923 380.77 49.2442 371.64 49.2441H323.398Z" fill="black"/>
<path d="M453.124 34.5264C455.577 34.5264 457.485 35.2755 458.848 36.7744C460.21 38.1372 460.892 40.1139 460.892 42.7031V155.129C460.892 158.672 461.846 161.534 463.754 163.714C465.798 165.894 468.455 166.984 471.726 166.984H539.794C545.109 166.984 547.767 169.097 547.767 173.321C547.767 175.365 547.084 176.932 545.722 178.022C544.359 179.113 542.383 179.658 539.794 179.658H471.93C463.617 179.658 457.144 177.477 452.511 173.116C447.878 168.619 445.561 162.487 445.561 154.72V42.7031C445.561 40.1139 446.243 38.1372 447.605 36.7744C448.968 35.2757 450.808 34.5264 453.124 34.5264Z" fill="black"/>
</svg>

